<svg width="25" height="24" viewBox="0 0 25 24" fill="none" xmlns="http://www.w3.org/2000/svg">
<mask id="mask0_1818_7608" style="mask-type:alpha" maskUnits="userSpaceOnUse" x="0" y="0" width="25" height="24">
<rect x="0.384521" width="24" height="24" fill="#D9D9D9"/>
</mask>
<g mask="url(#mask0_1818_7608)">
<path d="M9.38452 17C8.83452 17 8.36369 16.8042 7.97202 16.4125C7.58035 16.0208 7.38452 15.55 7.38452 15V5C7.38452 4.45 7.58035 3.97917 7.97202 3.5875C8.36369 3.19583 8.83452 3 9.38452 3H19.3845C19.9345 3 20.4054 3.19583 20.797 3.5875C21.1887 3.97917 21.3845 4.45 21.3845 5V15C21.3845 15.55 21.1887 16.0208 20.797 16.4125C20.4054 16.8042 19.9345 17 19.3845 17H9.38452ZM9.38452 15H19.3845V5H9.38452V15ZM5.38452 19V21C4.83452 21 4.36369 20.8042 3.97202 20.4125C3.58035 20.0208 3.38452 19.55 3.38452 19H5.38452ZM3.38452 17V15H5.38452V17H3.38452ZM3.38452 13V11H5.38452V13H3.38452ZM3.38452 9V7H5.38452V9H3.38452ZM7.38452 21V19H9.38452V21H7.38452ZM11.3845 21V19H13.3845V21H11.3845ZM15.3845 21V19H17.3845V21H15.3845Z" fill="#006BEA"/>
</g>
</svg>
